<svg xmlns="http://www.w3.org/2000/svg" width="1200" height="800" viewBox="0 0 1200 800">
  <defs>
    <linearGradient id="g" x1="0" y1="0" x2="1" y2="1">
      <stop offset="0" stop-color="#0b0b10"/>
      <stop offset="0.55" stop-color="#101018"/>
      <stop offset="1" stop-color="#07070a"/>
    </linearGradient>
    <radialGradient id="glow" cx="35%" cy="20%" r="70%">
      <stop offset="0" stop-color="#d4af37" stop-opacity="0.18"/>
      <stop offset="1" stop-color="#d4af37" stop-opacity="0"/>
    </radialGradient>
    <filter id="soft">
      <feGaussianBlur stdDeviation="0.6"/>
    </filter>
  </defs>
  <rect width="100%" height="100%" fill="url(#g)"/>
  <rect width="100%" height="100%" fill="url(#glow)"/>
  <g filter="url(#soft)">
    <line x1="88" y1="532" x2="46" y2="582" stroke="#d4af37" stroke-width="1" opacity="0.15"/>
<line x1="88" y1="532" x2="203" y2="592" stroke="#d4af37" stroke-width="1" opacity="0.21"/>
<line x1="88" y1="532" x2="247" y2="523" stroke="#d4af37" stroke-width="1" opacity="0.20"/>
<line x1="247" y1="523" x2="203" y2="592" stroke="#d4af37" stroke-width="1" opacity="0.12"/>
<line x1="247" y1="523" x2="303" y2="609" stroke="#d4af37" stroke-width="1" opacity="0.16"/>
<line x1="408" y1="402" x2="533" y2="421" stroke="#d4af37" stroke-width="1" opacity="0.22"/>
<line x1="408" y1="402" x2="303" y2="609" stroke="#d4af37" stroke-width="1" opacity="0.20"/>
<line x1="711" y1="541" x2="612" y2="584" stroke="#d4af37" stroke-width="1" opacity="0.15"/>
<line x1="711" y1="541" x2="592" y2="598" stroke="#d4af37" stroke-width="1" opacity="0.21"/>
<line x1="711" y1="541" x2="811" y2="450" stroke="#d4af37" stroke-width="1" opacity="0.12"/>
<line x1="592" y1="598" x2="612" y2="584" stroke="#d4af37" stroke-width="1" opacity="0.21"/>
<line x1="592" y1="598" x2="533" y2="421" stroke="#d4af37" stroke-width="1" opacity="0.17"/>
<line x1="303" y1="609" x2="203" y2="592" stroke="#d4af37" stroke-width="1" opacity="0.13"/>
<line x1="303" y1="609" x2="220" y2="791" stroke="#d4af37" stroke-width="1" opacity="0.18"/>
<line x1="534" y1="110" x2="414" y2="116" stroke="#d4af37" stroke-width="1" opacity="0.10"/>
<line x1="534" y1="110" x2="412" y2="72" stroke="#d4af37" stroke-width="1" opacity="0.17"/>
<line x1="534" y1="110" x2="670" y2="274" stroke="#d4af37" stroke-width="1" opacity="0.14"/>
<line x1="533" y1="421" x2="666" y2="318" stroke="#d4af37" stroke-width="1" opacity="0.13"/>
<line x1="533" y1="421" x2="612" y2="584" stroke="#d4af37" stroke-width="1" opacity="0.13"/>
<line x1="670" y1="274" x2="666" y2="318" stroke="#d4af37" stroke-width="1" opacity="0.14"/>
<line x1="670" y1="274" x2="832" y2="238" stroke="#d4af37" stroke-width="1" opacity="0.10"/>
<line x1="220" y1="791" x2="203" y2="592" stroke="#d4af37" stroke-width="1" opacity="0.13"/>
<line x1="666" y1="318" x2="832" y2="238" stroke="#d4af37" stroke-width="1" opacity="0.20"/>
<line x1="46" y1="582" x2="203" y2="592" stroke="#d4af37" stroke-width="1" opacity="0.11"/>
<line x1="412" y1="72" x2="414" y2="116" stroke="#d4af37" stroke-width="1" opacity="0.14"/>
<line x1="412" y1="72" x2="220" y2="212" stroke="#d4af37" stroke-width="1" opacity="0.16"/>
<line x1="414" y1="116" x2="220" y2="212" stroke="#d4af37" stroke-width="1" opacity="0.16"/>
<line x1="1110" y1="466" x2="1116" y2="590" stroke="#d4af37" stroke-width="1" opacity="0.22"/>
<line x1="1110" y1="466" x2="811" y2="450" stroke="#d4af37" stroke-width="1" opacity="0.20"/>
<line x1="1110" y1="466" x2="1028" y2="162" stroke="#d4af37" stroke-width="1" opacity="0.20"/>
<line x1="795" y1="751" x2="866" y2="773" stroke="#d4af37" stroke-width="1" opacity="0.17"/>
<line x1="795" y1="751" x2="612" y2="584" stroke="#d4af37" stroke-width="1" opacity="0.19"/>
<line x1="150" y1="100" x2="220" y2="212" stroke="#d4af37" stroke-width="1" opacity="0.19"/>
<line x1="848" y1="17" x2="832" y2="238" stroke="#d4af37" stroke-width="1" opacity="0.14"/>
<line x1="848" y1="17" x2="1028" y2="162" stroke="#d4af37" stroke-width="1" opacity="0.19"/>
<line x1="866" y1="773" x2="1116" y2="590" stroke="#d4af37" stroke-width="1" opacity="0.16"/>
<line x1="811" y1="450" x2="832" y2="238" stroke="#d4af37" stroke-width="1" opacity="0.18"/>
<line x1="1028" y1="162" x2="832" y2="238" stroke="#d4af37" stroke-width="1" opacity="0.17"/>

    <circle cx="88" cy="532" r="2" fill="#d4af37" opacity="0.31"/>
<circle cx="247" cy="523" r="2" fill="#d4af37" opacity="0.44"/>
<circle cx="408" cy="402" r="2" fill="#d4af37" opacity="0.41"/>
<circle cx="711" cy="541" r="2" fill="#d4af37" opacity="0.25"/>
<circle cx="592" cy="598" r="2" fill="#d4af37" opacity="0.52"/>
<circle cx="303" cy="609" r="3" fill="#d4af37" opacity="0.29"/>
<circle cx="534" cy="110" r="2" fill="#d4af37" opacity="0.50"/>
<circle cx="533" cy="421" r="2" fill="#d4af37" opacity="0.36"/>
<circle cx="670" cy="274" r="3" fill="#d4af37" opacity="0.51"/>
<circle cx="220" cy="791" r="2" fill="#d4af37" opacity="0.32"/>
<circle cx="666" cy="318" r="2" fill="#d4af37" opacity="0.39"/>
<circle cx="46" cy="582" r="2" fill="#d4af37" opacity="0.28"/>
<circle cx="412" cy="72" r="3" fill="#d4af37" opacity="0.45"/>
<circle cx="414" cy="116" r="2" fill="#d4af37" opacity="0.39"/>
<circle cx="1110" cy="466" r="2" fill="#d4af37" opacity="0.37"/>
<circle cx="795" cy="751" r="3" fill="#d4af37" opacity="0.30"/>
<circle cx="150" cy="100" r="2" fill="#d4af37" opacity="0.34"/>
<circle cx="848" cy="17" r="3" fill="#d4af37" opacity="0.48"/>
<circle cx="203" cy="592" r="2" fill="#d4af37" opacity="0.31"/>
<circle cx="866" cy="773" r="3" fill="#d4af37" opacity="0.54"/>
<circle cx="811" cy="450" r="2" fill="#d4af37" opacity="0.28"/>
<circle cx="612" cy="584" r="2" fill="#d4af37" opacity="0.39"/>
<circle cx="1028" cy="162" r="2" fill="#d4af37" opacity="0.45"/>
<circle cx="832" cy="238" r="2" fill="#d4af37" opacity="0.30"/>
<circle cx="1116" cy="590" r="3" fill="#d4af37" opacity="0.33"/>
<circle cx="220" cy="212" r="2" fill="#d4af37" opacity="0.29"/>

  </g>
</svg>