<svg xmlns="http://www.w3.org/2000/svg" width="1200" height="800" viewBox="0 0 1200 800">
  <defs>
    <linearGradient id="g" x1="0" y1="0" x2="1" y2="1">
      <stop offset="0" stop-color="#0b0b10"/>
      <stop offset="0.55" stop-color="#101018"/>
      <stop offset="1" stop-color="#07070a"/>
    </linearGradient>
    <radialGradient id="glow" cx="35%" cy="20%" r="70%">
      <stop offset="0" stop-color="#d4af37" stop-opacity="0.18"/>
      <stop offset="1" stop-color="#d4af37" stop-opacity="0"/>
    </radialGradient>
    <filter id="soft">
      <feGaussianBlur stdDeviation="0.6"/>
    </filter>
  </defs>
  <rect width="100%" height="100%" fill="url(#g)"/>
  <rect width="100%" height="100%" fill="url(#glow)"/>
  <g filter="url(#soft)">
    <line x1="1069" y1="424" x2="1038" y2="485" stroke="#d4af37" stroke-width="1" opacity="0.18"/>
<line x1="1069" y1="424" x2="977" y2="383" stroke="#d4af37" stroke-width="1" opacity="0.21"/>
<line x1="1069" y1="424" x2="1027" y2="325" stroke="#d4af37" stroke-width="1" opacity="0.11"/>
<line x1="621" y1="374" x2="430" y2="338" stroke="#d4af37" stroke-width="1" opacity="0.22"/>
<line x1="621" y1="374" x2="593" y2="178" stroke="#d4af37" stroke-width="1" opacity="0.14"/>
<line x1="621" y1="374" x2="836" y2="518" stroke="#d4af37" stroke-width="1" opacity="0.21"/>
<line x1="593" y1="178" x2="569" y2="112" stroke="#d4af37" stroke-width="1" opacity="0.14"/>
<line x1="593" y1="178" x2="726" y2="51" stroke="#d4af37" stroke-width="1" opacity="0.14"/>
<line x1="593" y1="178" x2="688" y2="18" stroke="#d4af37" stroke-width="1" opacity="0.12"/>
<line x1="1106" y1="677" x2="1091" y2="572" stroke="#d4af37" stroke-width="1" opacity="0.15"/>
<line x1="1106" y1="677" x2="1038" y2="485" stroke="#d4af37" stroke-width="1" opacity="0.18"/>
<line x1="569" y1="112" x2="688" y2="18" stroke="#d4af37" stroke-width="1" opacity="0.14"/>
<line x1="569" y1="112" x2="726" y2="51" stroke="#d4af37" stroke-width="1" opacity="0.13"/>
<line x1="55" y1="254" x2="141" y2="316" stroke="#d4af37" stroke-width="1" opacity="0.22"/>
<line x1="55" y1="254" x2="286" y2="201" stroke="#d4af37" stroke-width="1" opacity="0.16"/>
<line x1="55" y1="254" x2="430" y2="338" stroke="#d4af37" stroke-width="1" opacity="0.17"/>
<line x1="786" y1="764" x2="836" y2="518" stroke="#d4af37" stroke-width="1" opacity="0.17"/>
<line x1="786" y1="764" x2="1091" y2="572" stroke="#d4af37" stroke-width="1" opacity="0.22"/>
<line x1="859" y1="258" x2="822" y2="140" stroke="#d4af37" stroke-width="1" opacity="0.13"/>
<line x1="859" y1="258" x2="886" y2="381" stroke="#d4af37" stroke-width="1" opacity="0.21"/>
<line x1="859" y1="258" x2="977" y2="383" stroke="#d4af37" stroke-width="1" opacity="0.17"/>
<line x1="1027" y1="325" x2="977" y2="383" stroke="#d4af37" stroke-width="1" opacity="0.20"/>
<line x1="1027" y1="325" x2="886" y2="381" stroke="#d4af37" stroke-width="1" opacity="0.11"/>
<line x1="822" y1="140" x2="839" y2="83" stroke="#d4af37" stroke-width="1" opacity="0.21"/>
<line x1="822" y1="140" x2="726" y2="51" stroke="#d4af37" stroke-width="1" opacity="0.17"/>
<line x1="1128" y1="63" x2="1170" y2="52" stroke="#d4af37" stroke-width="1" opacity="0.20"/>
<line x1="1128" y1="63" x2="1105" y2="126" stroke="#d4af37" stroke-width="1" opacity="0.13"/>
<line x1="286" y1="201" x2="141" y2="316" stroke="#d4af37" stroke-width="1" opacity="0.15"/>
<line x1="286" y1="201" x2="430" y2="338" stroke="#d4af37" stroke-width="1" opacity="0.18"/>
<line x1="309" y1="722" x2="290" y2="698" stroke="#d4af37" stroke-width="1" opacity="0.11"/>
<line x1="309" y1="722" x2="430" y2="338" stroke="#d4af37" stroke-width="1" opacity="0.16"/>
<line x1="309" y1="722" x2="141" y2="316" stroke="#d4af37" stroke-width="1" opacity="0.13"/>
<line x1="1091" y1="572" x2="1038" y2="485" stroke="#d4af37" stroke-width="1" opacity="0.16"/>
<line x1="1105" y1="126" x2="1170" y2="52" stroke="#d4af37" stroke-width="1" opacity="0.20"/>
<line x1="839" y1="83" x2="726" y2="51" stroke="#d4af37" stroke-width="1" opacity="0.22"/>
<line x1="839" y1="83" x2="688" y2="18" stroke="#d4af37" stroke-width="1" opacity="0.17"/>
<line x1="1038" y1="485" x2="977" y2="383" stroke="#d4af37" stroke-width="1" opacity="0.22"/>
<line x1="836" y1="518" x2="886" y2="381" stroke="#d4af37" stroke-width="1" opacity="0.17"/>
<line x1="836" y1="518" x2="977" y2="383" stroke="#d4af37" stroke-width="1" opacity="0.16"/>
<line x1="688" y1="18" x2="726" y2="51" stroke="#d4af37" stroke-width="1" opacity="0.11"/>
<line x1="886" y1="381" x2="977" y2="383" stroke="#d4af37" stroke-width="1" opacity="0.20"/>

    <circle cx="1069" cy="424" r="3" fill="#d4af37" opacity="0.48"/>
<circle cx="621" cy="374" r="2" fill="#d4af37" opacity="0.32"/>
<circle cx="593" cy="178" r="3" fill="#d4af37" opacity="0.31"/>
<circle cx="1106" cy="677" r="2" fill="#d4af37" opacity="0.41"/>
<circle cx="569" cy="112" r="2" fill="#d4af37" opacity="0.27"/>
<circle cx="55" cy="254" r="2" fill="#d4af37" opacity="0.49"/>
<circle cx="786" cy="764" r="2" fill="#d4af37" opacity="0.47"/>
<circle cx="859" cy="258" r="3" fill="#d4af37" opacity="0.41"/>
<circle cx="1027" cy="325" r="2" fill="#d4af37" opacity="0.33"/>
<circle cx="822" cy="140" r="2" fill="#d4af37" opacity="0.52"/>
<circle cx="1128" cy="63" r="2" fill="#d4af37" opacity="0.30"/>
<circle cx="286" cy="201" r="2" fill="#d4af37" opacity="0.52"/>
<circle cx="309" cy="722" r="3" fill="#d4af37" opacity="0.48"/>
<circle cx="1091" cy="572" r="2" fill="#d4af37" opacity="0.25"/>
<circle cx="430" cy="338" r="2" fill="#d4af37" opacity="0.26"/>
<circle cx="1105" cy="126" r="3" fill="#d4af37" opacity="0.33"/>
<circle cx="141" cy="316" r="3" fill="#d4af37" opacity="0.27"/>
<circle cx="839" cy="83" r="2" fill="#d4af37" opacity="0.34"/>
<circle cx="1038" cy="485" r="2" fill="#d4af37" opacity="0.47"/>
<circle cx="290" cy="698" r="3" fill="#d4af37" opacity="0.52"/>
<circle cx="836" cy="518" r="2" fill="#d4af37" opacity="0.44"/>
<circle cx="688" cy="18" r="3" fill="#d4af37" opacity="0.46"/>
<circle cx="886" cy="381" r="2" fill="#d4af37" opacity="0.40"/>
<circle cx="1170" cy="52" r="3" fill="#d4af37" opacity="0.49"/>
<circle cx="726" cy="51" r="2" fill="#d4af37" opacity="0.31"/>
<circle cx="977" cy="383" r="2" fill="#d4af37" opacity="0.54"/>

  </g>
</svg>