<svg xmlns="http://www.w3.org/2000/svg" width="1200" height="800" viewBox="0 0 1200 800">
  <defs>
    <linearGradient id="g" x1="0" y1="0" x2="1" y2="1">
      <stop offset="0" stop-color="#0b0b10"/>
      <stop offset="0.55" stop-color="#101018"/>
      <stop offset="1" stop-color="#07070a"/>
    </linearGradient>
    <radialGradient id="glow" cx="35%" cy="20%" r="70%">
      <stop offset="0" stop-color="#d4af37" stop-opacity="0.18"/>
      <stop offset="1" stop-color="#d4af37" stop-opacity="0"/>
    </radialGradient>
    <filter id="soft">
      <feGaussianBlur stdDeviation="0.6"/>
    </filter>
  </defs>
  <rect width="100%" height="100%" fill="url(#g)"/>
  <rect width="100%" height="100%" fill="url(#glow)"/>
  <g filter="url(#soft)">
    <line x1="663" y1="154" x2="812" y2="50" stroke="#d4af37" stroke-width="1" opacity="0.18"/>
<line x1="663" y1="154" x2="492" y2="92" stroke="#d4af37" stroke-width="1" opacity="0.15"/>
<line x1="663" y1="154" x2="856" y2="71" stroke="#d4af37" stroke-width="1" opacity="0.19"/>
<line x1="808" y1="666" x2="748" y2="596" stroke="#d4af37" stroke-width="1" opacity="0.21"/>
<line x1="808" y1="666" x2="631" y2="573" stroke="#d4af37" stroke-width="1" opacity="0.14"/>
<line x1="808" y1="666" x2="593" y2="429" stroke="#d4af37" stroke-width="1" opacity="0.21"/>
<line x1="98" y1="74" x2="253" y2="228" stroke="#d4af37" stroke-width="1" opacity="0.14"/>
<line x1="98" y1="74" x2="370" y2="105" stroke="#d4af37" stroke-width="1" opacity="0.17"/>
<line x1="98" y1="74" x2="439" y2="38" stroke="#d4af37" stroke-width="1" opacity="0.16"/>
<line x1="1097" y1="96" x2="1140" y2="136" stroke="#d4af37" stroke-width="1" opacity="0.13"/>
<line x1="1097" y1="96" x2="1193" y2="63" stroke="#d4af37" stroke-width="1" opacity="0.13"/>
<line x1="1097" y1="96" x2="856" y2="71" stroke="#d4af37" stroke-width="1" opacity="0.19"/>
<line x1="748" y1="596" x2="631" y2="573" stroke="#d4af37" stroke-width="1" opacity="0.15"/>
<line x1="748" y1="596" x2="593" y2="429" stroke="#d4af37" stroke-width="1" opacity="0.21"/>
<line x1="118" y1="519" x2="121" y2="579" stroke="#d4af37" stroke-width="1" opacity="0.16"/>
<line x1="118" y1="519" x2="199" y2="560" stroke="#d4af37" stroke-width="1" opacity="0.12"/>
<line x1="118" y1="519" x2="176" y2="444" stroke="#d4af37" stroke-width="1" opacity="0.15"/>
<line x1="439" y1="38" x2="452" y2="47" stroke="#d4af37" stroke-width="1" opacity="0.13"/>
<line x1="439" y1="38" x2="492" y2="92" stroke="#d4af37" stroke-width="1" opacity="0.12"/>
<line x1="439" y1="38" x2="370" y2="105" stroke="#d4af37" stroke-width="1" opacity="0.15"/>
<line x1="176" y1="444" x2="199" y2="560" stroke="#d4af37" stroke-width="1" opacity="0.17"/>
<line x1="176" y1="444" x2="121" y2="579" stroke="#d4af37" stroke-width="1" opacity="0.18"/>
<line x1="856" y1="71" x2="812" y2="50" stroke="#d4af37" stroke-width="1" opacity="0.22"/>
<line x1="492" y1="92" x2="452" y2="47" stroke="#d4af37" stroke-width="1" opacity="0.18"/>
<line x1="492" y1="92" x2="370" y2="105" stroke="#d4af37" stroke-width="1" opacity="0.15"/>
<line x1="1128" y1="434" x2="1191" y2="584" stroke="#d4af37" stroke-width="1" opacity="0.13"/>
<line x1="1128" y1="434" x2="1181" y2="599" stroke="#d4af37" stroke-width="1" opacity="0.11"/>
<line x1="1128" y1="434" x2="1140" y2="136" stroke="#d4af37" stroke-width="1" opacity="0.12"/>
<line x1="121" y1="579" x2="199" y2="560" stroke="#d4af37" stroke-width="1" opacity="0.18"/>
<line x1="121" y1="579" x2="241" y2="584" stroke="#d4af37" stroke-width="1" opacity="0.10"/>
<line x1="253" y1="228" x2="370" y2="105" stroke="#d4af37" stroke-width="1" opacity="0.20"/>
<line x1="253" y1="228" x2="384" y2="381" stroke="#d4af37" stroke-width="1" opacity="0.12"/>
<line x1="1193" y1="63" x2="1140" y2="136" stroke="#d4af37" stroke-width="1" opacity="0.13"/>
<line x1="1181" y1="599" x2="1191" y2="584" stroke="#d4af37" stroke-width="1" opacity="0.12"/>
<line x1="452" y1="47" x2="370" y2="105" stroke="#d4af37" stroke-width="1" opacity="0.16"/>
<line x1="593" y1="429" x2="631" y2="573" stroke="#d4af37" stroke-width="1" opacity="0.17"/>
<line x1="593" y1="429" x2="384" y2="381" stroke="#d4af37" stroke-width="1" opacity="0.14"/>
<line x1="295" y1="553" x2="241" y2="584" stroke="#d4af37" stroke-width="1" opacity="0.12"/>
<line x1="295" y1="553" x2="199" y2="560" stroke="#d4af37" stroke-width="1" opacity="0.20"/>
<line x1="241" y1="584" x2="199" y2="560" stroke="#d4af37" stroke-width="1" opacity="0.21"/>

    <circle cx="663" cy="154" r="3" fill="#d4af37" opacity="0.27"/>
<circle cx="808" cy="666" r="2" fill="#d4af37" opacity="0.44"/>
<circle cx="98" cy="74" r="2" fill="#d4af37" opacity="0.45"/>
<circle cx="1097" cy="96" r="2" fill="#d4af37" opacity="0.48"/>
<circle cx="748" cy="596" r="2" fill="#d4af37" opacity="0.43"/>
<circle cx="118" cy="519" r="2" fill="#d4af37" opacity="0.36"/>
<circle cx="439" cy="38" r="2" fill="#d4af37" opacity="0.49"/>
<circle cx="176" cy="444" r="3" fill="#d4af37" opacity="0.48"/>
<circle cx="856" cy="71" r="2" fill="#d4af37" opacity="0.42"/>
<circle cx="492" cy="92" r="3" fill="#d4af37" opacity="0.40"/>
<circle cx="1128" cy="434" r="2" fill="#d4af37" opacity="0.47"/>
<circle cx="121" cy="579" r="2" fill="#d4af37" opacity="0.43"/>
<circle cx="253" cy="228" r="2" fill="#d4af37" opacity="0.29"/>
<circle cx="1193" cy="63" r="2" fill="#d4af37" opacity="0.30"/>
<circle cx="1181" cy="599" r="2" fill="#d4af37" opacity="0.30"/>
<circle cx="812" cy="50" r="2" fill="#d4af37" opacity="0.38"/>
<circle cx="452" cy="47" r="3" fill="#d4af37" opacity="0.27"/>
<circle cx="1140" cy="136" r="3" fill="#d4af37" opacity="0.42"/>
<circle cx="593" cy="429" r="2" fill="#d4af37" opacity="0.35"/>
<circle cx="295" cy="553" r="2" fill="#d4af37" opacity="0.43"/>
<circle cx="241" cy="584" r="3" fill="#d4af37" opacity="0.49"/>
<circle cx="631" cy="573" r="2" fill="#d4af37" opacity="0.50"/>
<circle cx="370" cy="105" r="2" fill="#d4af37" opacity="0.39"/>
<circle cx="1191" cy="584" r="3" fill="#d4af37" opacity="0.27"/>
<circle cx="384" cy="381" r="3" fill="#d4af37" opacity="0.46"/>
<circle cx="199" cy="560" r="3" fill="#d4af37" opacity="0.42"/>

  </g>
</svg>