<svg xmlns="http://www.w3.org/2000/svg" width="1200" height="800" viewBox="0 0 1200 800">
  <defs>
    <linearGradient id="g" x1="0" y1="0" x2="1" y2="1">
      <stop offset="0" stop-color="#0b0b10"/>
      <stop offset="0.55" stop-color="#101018"/>
      <stop offset="1" stop-color="#07070a"/>
    </linearGradient>
    <radialGradient id="glow" cx="35%" cy="20%" r="70%">
      <stop offset="0" stop-color="#d4af37" stop-opacity="0.18"/>
      <stop offset="1" stop-color="#d4af37" stop-opacity="0"/>
    </radialGradient>
    <filter id="soft">
      <feGaussianBlur stdDeviation="0.6"/>
    </filter>
  </defs>
  <rect width="100%" height="100%" fill="url(#g)"/>
  <rect width="100%" height="100%" fill="url(#glow)"/>
  <g filter="url(#soft)">
    <line x1="593" y1="85" x2="733" y2="133" stroke="#d4af37" stroke-width="1" opacity="0.19"/>
<line x1="593" y1="85" x2="393" y2="273" stroke="#d4af37" stroke-width="1" opacity="0.16"/>
<line x1="593" y1="85" x2="910" y2="14" stroke="#d4af37" stroke-width="1" opacity="0.10"/>
<line x1="34" y1="606" x2="72" y2="603" stroke="#d4af37" stroke-width="1" opacity="0.13"/>
<line x1="34" y1="606" x2="40" y2="524" stroke="#d4af37" stroke-width="1" opacity="0.17"/>
<line x1="34" y1="606" x2="175" y2="485" stroke="#d4af37" stroke-width="1" opacity="0.19"/>
<line x1="628" y1="433" x2="643" y2="586" stroke="#d4af37" stroke-width="1" opacity="0.16"/>
<line x1="628" y1="433" x2="776" y2="542" stroke="#d4af37" stroke-width="1" opacity="0.14"/>
<line x1="628" y1="433" x2="742" y2="579" stroke="#d4af37" stroke-width="1" opacity="0.11"/>
<line x1="776" y1="542" x2="755" y2="585" stroke="#d4af37" stroke-width="1" opacity="0.17"/>
<line x1="776" y1="542" x2="742" y2="579" stroke="#d4af37" stroke-width="1" opacity="0.18"/>
<line x1="776" y1="542" x2="755" y2="673" stroke="#d4af37" stroke-width="1" opacity="0.18"/>
<line x1="733" y1="133" x2="910" y2="14" stroke="#d4af37" stroke-width="1" opacity="0.17"/>
<line x1="733" y1="133" x2="931" y2="25" stroke="#d4af37" stroke-width="1" opacity="0.13"/>
<line x1="393" y1="273" x2="216" y2="87" stroke="#d4af37" stroke-width="1" opacity="0.11"/>
<line x1="393" y1="273" x2="117" y2="210" stroke="#d4af37" stroke-width="1" opacity="0.12"/>
<line x1="910" y1="14" x2="931" y2="25" stroke="#d4af37" stroke-width="1" opacity="0.10"/>
<line x1="452" y1="635" x2="352" y2="635" stroke="#d4af37" stroke-width="1" opacity="0.19"/>
<line x1="452" y1="635" x2="442" y2="752" stroke="#d4af37" stroke-width="1" opacity="0.18"/>
<line x1="452" y1="635" x2="576" y2="676" stroke="#d4af37" stroke-width="1" opacity="0.15"/>
<line x1="216" y1="87" x2="117" y2="210" stroke="#d4af37" stroke-width="1" opacity="0.12"/>
<line x1="1020" y1="431" x2="883" y2="367" stroke="#d4af37" stroke-width="1" opacity="0.17"/>
<line x1="1020" y1="431" x2="989" y2="604" stroke="#d4af37" stroke-width="1" opacity="0.20"/>
<line x1="40" y1="524" x2="72" y2="603" stroke="#d4af37" stroke-width="1" opacity="0.11"/>
<line x1="40" y1="524" x2="175" y2="485" stroke="#d4af37" stroke-width="1" opacity="0.22"/>
<line x1="883" y1="367" x2="755" y2="585" stroke="#d4af37" stroke-width="1" opacity="0.21"/>
<line x1="117" y1="210" x2="175" y2="485" stroke="#d4af37" stroke-width="1" opacity="0.19"/>
<line x1="72" y1="603" x2="175" y2="485" stroke="#d4af37" stroke-width="1" opacity="0.17"/>
<line x1="755" y1="673" x2="755" y2="585" stroke="#d4af37" stroke-width="1" opacity="0.15"/>
<line x1="755" y1="673" x2="742" y2="579" stroke="#d4af37" stroke-width="1" opacity="0.14"/>
<line x1="352" y1="635" x2="363" y2="735" stroke="#d4af37" stroke-width="1" opacity="0.20"/>
<line x1="352" y1="635" x2="442" y2="752" stroke="#d4af37" stroke-width="1" opacity="0.17"/>
<line x1="442" y1="752" x2="363" y2="735" stroke="#d4af37" stroke-width="1" opacity="0.11"/>
<line x1="742" y1="579" x2="755" y2="585" stroke="#d4af37" stroke-width="1" opacity="0.13"/>
<line x1="576" y1="676" x2="643" y2="586" stroke="#d4af37" stroke-width="1" opacity="0.10"/>
<line x1="989" y1="604" x2="916" y2="691" stroke="#d4af37" stroke-width="1" opacity="0.12"/>

    <circle cx="593" cy="85" r="3" fill="#d4af37" opacity="0.30"/>
<circle cx="34" cy="606" r="2" fill="#d4af37" opacity="0.41"/>
<circle cx="628" cy="433" r="3" fill="#d4af37" opacity="0.49"/>
<circle cx="776" cy="542" r="2" fill="#d4af37" opacity="0.42"/>
<circle cx="733" cy="133" r="2" fill="#d4af37" opacity="0.28"/>
<circle cx="393" cy="273" r="2" fill="#d4af37" opacity="0.42"/>
<circle cx="910" cy="14" r="3" fill="#d4af37" opacity="0.33"/>
<circle cx="452" cy="635" r="3" fill="#d4af37" opacity="0.35"/>
<circle cx="931" cy="25" r="2" fill="#d4af37" opacity="0.52"/>
<circle cx="216" cy="87" r="3" fill="#d4af37" opacity="0.34"/>
<circle cx="1020" cy="431" r="2" fill="#d4af37" opacity="0.41"/>
<circle cx="40" cy="524" r="2" fill="#d4af37" opacity="0.29"/>
<circle cx="883" cy="367" r="3" fill="#d4af37" opacity="0.49"/>
<circle cx="117" cy="210" r="3" fill="#d4af37" opacity="0.49"/>
<circle cx="72" cy="603" r="2" fill="#d4af37" opacity="0.32"/>
<circle cx="755" cy="673" r="3" fill="#d4af37" opacity="0.29"/>
<circle cx="352" cy="635" r="3" fill="#d4af37" opacity="0.43"/>
<circle cx="442" cy="752" r="2" fill="#d4af37" opacity="0.30"/>
<circle cx="742" cy="579" r="2" fill="#d4af37" opacity="0.27"/>
<circle cx="755" cy="585" r="2" fill="#d4af37" opacity="0.37"/>
<circle cx="576" cy="676" r="2" fill="#d4af37" opacity="0.49"/>
<circle cx="643" cy="586" r="3" fill="#d4af37" opacity="0.25"/>
<circle cx="175" cy="485" r="2" fill="#d4af37" opacity="0.49"/>
<circle cx="363" cy="735" r="2" fill="#d4af37" opacity="0.41"/>
<circle cx="989" cy="604" r="2" fill="#d4af37" opacity="0.47"/>
<circle cx="916" cy="691" r="2" fill="#d4af37" opacity="0.25"/>

  </g>
</svg>