<svg xmlns="http://www.w3.org/2000/svg" width="1200" height="800" viewBox="0 0 1200 800">
  <defs>
    <linearGradient id="g" x1="0" y1="0" x2="1" y2="1">
      <stop offset="0" stop-color="#0b0b10"/>
      <stop offset="0.55" stop-color="#101018"/>
      <stop offset="1" stop-color="#07070a"/>
    </linearGradient>
    <radialGradient id="glow" cx="35%" cy="20%" r="70%">
      <stop offset="0" stop-color="#d4af37" stop-opacity="0.18"/>
      <stop offset="1" stop-color="#d4af37" stop-opacity="0"/>
    </radialGradient>
    <filter id="soft">
      <feGaussianBlur stdDeviation="0.6"/>
    </filter>
  </defs>
  <rect width="100%" height="100%" fill="url(#g)"/>
  <rect width="100%" height="100%" fill="url(#glow)"/>
  <g filter="url(#soft)">
    <line x1="926" y1="573" x2="902" y2="605" stroke="#d4af37" stroke-width="1" opacity="0.15"/>
<line x1="926" y1="573" x2="953" y2="462" stroke="#d4af37" stroke-width="1" opacity="0.20"/>
<line x1="926" y1="573" x2="1040" y2="601" stroke="#d4af37" stroke-width="1" opacity="0.18"/>
<line x1="953" y1="462" x2="1048" y2="487" stroke="#d4af37" stroke-width="1" opacity="0.11"/>
<line x1="953" y1="462" x2="950" y2="334" stroke="#d4af37" stroke-width="1" opacity="0.22"/>
<line x1="1040" y1="601" x2="1048" y2="487" stroke="#d4af37" stroke-width="1" opacity="0.13"/>
<line x1="1040" y1="601" x2="1103" y2="710" stroke="#d4af37" stroke-width="1" opacity="0.13"/>
<line x1="388" y1="189" x2="381" y2="96" stroke="#d4af37" stroke-width="1" opacity="0.19"/>
<line x1="388" y1="189" x2="290" y2="92" stroke="#d4af37" stroke-width="1" opacity="0.14"/>
<line x1="388" y1="189" x2="129" y2="60" stroke="#d4af37" stroke-width="1" opacity="0.14"/>
<line x1="381" y1="96" x2="290" y2="92" stroke="#d4af37" stroke-width="1" opacity="0.11"/>
<line x1="381" y1="96" x2="129" y2="60" stroke="#d4af37" stroke-width="1" opacity="0.11"/>
<line x1="914" y1="310" x2="950" y2="334" stroke="#d4af37" stroke-width="1" opacity="0.17"/>
<line x1="914" y1="310" x2="811" y2="463" stroke="#d4af37" stroke-width="1" opacity="0.13"/>
<line x1="290" y1="92" x2="129" y2="60" stroke="#d4af37" stroke-width="1" opacity="0.17"/>
<line x1="1103" y1="710" x2="902" y2="605" stroke="#d4af37" stroke-width="1" opacity="0.14"/>
<line x1="85" y1="609" x2="30" y2="541" stroke="#d4af37" stroke-width="1" opacity="0.15"/>
<line x1="85" y1="609" x2="9" y2="678" stroke="#d4af37" stroke-width="1" opacity="0.22"/>
<line x1="85" y1="609" x2="174" y2="468" stroke="#d4af37" stroke-width="1" opacity="0.16"/>
<line x1="811" y1="463" x2="902" y2="605" stroke="#d4af37" stroke-width="1" opacity="0.17"/>
<line x1="322" y1="638" x2="400" y2="531" stroke="#d4af37" stroke-width="1" opacity="0.20"/>
<line x1="322" y1="638" x2="478" y2="655" stroke="#d4af37" stroke-width="1" opacity="0.12"/>
<line x1="322" y1="638" x2="495" y2="614" stroke="#d4af37" stroke-width="1" opacity="0.12"/>
<line x1="30" y1="541" x2="9" y2="678" stroke="#d4af37" stroke-width="1" opacity="0.21"/>
<line x1="30" y1="541" x2="174" y2="468" stroke="#d4af37" stroke-width="1" opacity="0.20"/>
<line x1="129" y1="60" x2="73" y2="194" stroke="#d4af37" stroke-width="1" opacity="0.13"/>
<line x1="73" y1="194" x2="174" y2="468" stroke="#d4af37" stroke-width="1" opacity="0.12"/>
<line x1="495" y1="614" x2="478" y2="655" stroke="#d4af37" stroke-width="1" opacity="0.19"/>
<line x1="495" y1="614" x2="400" y2="531" stroke="#d4af37" stroke-width="1" opacity="0.21"/>
<line x1="495" y1="614" x2="602" y2="511" stroke="#d4af37" stroke-width="1" opacity="0.12"/>
<line x1="61" y1="796" x2="9" y2="678" stroke="#d4af37" stroke-width="1" opacity="0.21"/>
<line x1="400" y1="531" x2="478" y2="655" stroke="#d4af37" stroke-width="1" opacity="0.21"/>
<line x1="602" y1="511" x2="569" y2="416" stroke="#d4af37" stroke-width="1" opacity="0.17"/>

    <circle cx="926" cy="573" r="3" fill="#d4af37" opacity="0.33"/>
<circle cx="953" cy="462" r="2" fill="#d4af37" opacity="0.40"/>
<circle cx="1040" cy="601" r="2" fill="#d4af37" opacity="0.27"/>
<circle cx="388" cy="189" r="2" fill="#d4af37" opacity="0.37"/>
<circle cx="1048" cy="487" r="2" fill="#d4af37" opacity="0.37"/>
<circle cx="381" cy="96" r="2" fill="#d4af37" opacity="0.50"/>
<circle cx="914" cy="310" r="2" fill="#d4af37" opacity="0.31"/>
<circle cx="290" cy="92" r="2" fill="#d4af37" opacity="0.39"/>
<circle cx="1103" cy="710" r="3" fill="#d4af37" opacity="0.37"/>
<circle cx="85" cy="609" r="2" fill="#d4af37" opacity="0.42"/>
<circle cx="811" cy="463" r="2" fill="#d4af37" opacity="0.48"/>
<circle cx="322" cy="638" r="2" fill="#d4af37" opacity="0.35"/>
<circle cx="30" cy="541" r="2" fill="#d4af37" opacity="0.35"/>
<circle cx="129" cy="60" r="2" fill="#d4af37" opacity="0.48"/>
<circle cx="73" cy="194" r="2" fill="#d4af37" opacity="0.29"/>
<circle cx="495" cy="614" r="3" fill="#d4af37" opacity="0.28"/>
<circle cx="61" cy="796" r="2" fill="#d4af37" opacity="0.39"/>
<circle cx="950" cy="334" r="2" fill="#d4af37" opacity="0.30"/>
<circle cx="902" cy="605" r="3" fill="#d4af37" opacity="0.31"/>
<circle cx="400" cy="531" r="3" fill="#d4af37" opacity="0.31"/>
<circle cx="478" cy="655" r="3" fill="#d4af37" opacity="0.48"/>
<circle cx="602" cy="511" r="2" fill="#d4af37" opacity="0.44"/>
<circle cx="9" cy="678" r="2" fill="#d4af37" opacity="0.37"/>
<circle cx="174" cy="468" r="2" fill="#d4af37" opacity="0.25"/>
<circle cx="569" cy="416" r="3" fill="#d4af37" opacity="0.34"/>
<circle cx="1128" cy="85" r="2" fill="#d4af37" opacity="0.31"/>

  </g>
</svg>